<svg width="256" height="256" viewBox="0 0 256 256" fill="none" xmlns="http://www.w3.org/2000/svg">
  <rect width="256" height="256" rx="48" fill="#0D1117"/>
  <path d="M128 32C74.98 32 68 56 68 84V100H136V116H48C48 116 20 112 20 160C20 208 52 204 52 204H72V172C72 172 70 136 106 136H160C160 136 192 136 192 104V56C192 56 196 32 128 32Z" fill="#387EB8"/>
  <path d="M128 224C181.02 224 188 200 188 172V156H120V140H208C208 140 236 144 236 96C236 48 204 52 204 52H184V84C184 84 186 120 150 120H96C96 120 64 120 64 152V200C64 200 60 224 128 224Z" fill="#FFE052"/>
  <circle cx="128" cy="128" r="32" fill="#A855F7" opacity="0.8"/>
  <path d="M128 108L140 124H128V148L116 132H128V108Z" fill="#FFFFFF"/>
</svg>
